Bruce Springsteen And The E Street Band London Calling  Live At Hyde Park Mkv1080p Ac3 640 Kbps


London Calling
Badlands
Night
She's The One
Outlaw Pete
Out In The Street
Working on A Dream
Seeds
Johnny 99
1O. Youngstown
Good Lovin'
Bobby Jean
Trapped
No Surrender
Waiting On A Sunny Day
Promised Land
Racing In The Street
Radio Nowhere
Lonesome Day
2O. The Rising
Born To Run
Rosalita (Come Out Tonight)
Hard Times (Come Again No More)
Jungleland
American Land
Glory Days
Dancing In The Dark


General 
Unique ID : 186213449980282501992126441243176097415 (0x8C1767EB73CEA8C1891681C115185687) 
Bruce Springsteen Live At Hyde Park Mkv1080p Ac3 640 Kbps.mkv 
Format : Matroska 
Format version : Version 2 
File size : 9.62 GiB 
Duration : 2h 52mn 
Overall bit rate mode : Variable 
Overall bit rate : 7 974 Kbps 
Movie name : Bruce Springsteen and The E Street Band Live At Hyde Park 
Encoded date : UTC 2012-11-02 18:03:13 
Writing application : mkvmerge v5.7.0 ('The Whirlwind') built on Jul 8 2012 20:08:51 
Writing library : libebml v1.2.3 + libmatroska v1.3.0 

Video 
ID : 1 
Format : AVC 
Format/Info : Advanced Video Codec 
Format profile : High@L4.0 
Format settings, CABAC : Yes 
Format settings, ReFrames : 3 frames 
Codec ID : V_MPEG4/ISO/AVC 
Duration : 2h 52mn 
Bit rate mode : Variable 
Bit rate : 7 175 Kbps 
Maximum bit rate : 25.0 Mbps 
Width : 1 920 pixels 
Height : 1 080 pixels 
Display aspect ratio : 16:9 
Frame rate mode : Constant 
Frame rate : 29.970 fps 
Color space : YUV 
Chroma subsampling : 4:2:0 
Bit depth : 8 bits 
Scan type : Progressive 
Bits/(Pixel*Frame) : 0.115 
Stream size : 8.65 GiB (90%) 
Writing library : x264 core 125 r2208 d9d2288 
Encoding settings : cabac=1 / ref=3 / deblock=1:0:0 / analyse=0x3:0x113 / me=hex / subme=7 / psy=1 / psy_rd=1.00:0.00 / mixed_ref=1 / me_range=16 / chroma_me=1 / trellis=1 / 8x8dct=1 / cqm=0 / deadzone=21,11 / fast_pskip=1 / chroma_qp_offset=-2 / threads=12 / lookahead_threads=2 / sliced_threads=0 / nr=0 / decimate=1 / interlaced=0 / bluray_compat=0 / constrained_intra=0 / bframes=3 / b_pyramid=0 / b_adapt=1 / b_bias=0 / direct=1 / weightb=1 / open_gop=0 / weightp=2 / keyint=300 / keyint_min=30 / scenecut=40 / intra_refresh=0 / rc_lookahead=40 / rc=crf / mbtree=1 / crf=24.0 / qcomp=0.60 / qpmin=0 / qpmax=69 / qpstep=4 / vbv_maxrate=25000 / vbv_bufsize=25000 / crf_max=0.0 / nal_hrd=vbr / ip_ratio=1.40 / aq=1:1.00 
Default : Yes 
Forced : No 

Audio 
ID : 2 
Format : AC-3 
Format/Info : Audio Coding 3 
Mode extension : CM (complete main) 
Format settings, Endianness : Big 
Codec ID : A_AC3 
Duration : 2h 52mn 
Bit rate mode : Constant 
Bit rate : 640 Kbps 
Channel(s) : 6 channels 
Channel positions : Front: L C R, Side: L R, LFE 
Sampling rate : 48.0 KHz 
Bit depth : 16 bits 
Compression mode : Lossy 
Stream size : 790 MiB (8%) 
Language : English 
Default : Yes 
Forced : No 

Menu 
00:00:00.000 : en:Chapter 00 
00:03:57.203 : en:Chapter 01 
00:10:17.383 : en:Chapter 02 
00:13:33.579 : en:Chapter 03 
00:18:56.668 : en:Chapter 04 
00:27:24.776 : en:Chapter 05 
00:34:14.252 : en:Chapter 06 
00:41:24.548 : en:Chapter 07 
00:47:11.161 : en:Chapter 08 
00:54:34.004 : en:Chapter 09 
01:00:58.755 : en:Chapter 10 
01:05:43.239 : en:Chapter 11 
01:10:22.318 : en:Chapter 12 
01:15:43.539 : en:Chapter 13 
01:21:20.075 : en:Chapter 14 
01:26:53.474 : en:Chapter 15 
01:33:03.644 : en:Chapter 16 
01:42:52.032 : en:Chapter 17 
01:46:54.541 : en:Chapter 18 
01:51:10.363 : en:Chapter 19 
01:56:11.431 : en:Chapter 20 
02:02:45.124 : en:Chapter 21 
02:12:36.315 : en:Chapter 22 
02:16:41.359 : en:Chapter 23 
02:27:24.869 : en:Chapter 24 
02:35:56.513 : en:Chapter 25 
02:40:39.763 : en:Chapter 26 
02:48:21.925 : en:Chapter 27 
